<svg xmlns="http://www.w3.org/2000/svg" viewBox="0 0 800 320" font-family="-apple-system, BlinkMacSystemFont, 'Segoe UI', Helvetica, Arial, sans-serif">
  <defs>
    <linearGradient id="barGrad" x1="0" y1="0" x2="0" y2="1">
      <stop offset="0%" stop-color="#6366f1"/>
      <stop offset="100%" stop-color="#818cf8"/>
    </linearGradient>
    <linearGradient id="areaGrad" x1="0" y1="0" x2="0" y2="1">
      <stop offset="0%" stop-color="#6366f1" stop-opacity="0.3"/>
      <stop offset="100%" stop-color="#6366f1" stop-opacity="0.02"/>
    </linearGradient>
  </defs>
  <rect width="800" height="320" rx="12" fill="#0d1117"/>
  <text x="40" y="40" fill="#e6edf3" font-size="18" font-weight="600">User Growth</text>
  <text x="40" y="62" fill="#7d8590" font-size="13">Cumulative signups since launch</text>
  <line x1="80" y1="232.5" x2="760" y2="232.5" stroke="#21262d" stroke-width="1"/>
  <line x1="80" y1="185.0" x2="760" y2="185.0" stroke="#21262d" stroke-width="1"/>
  <line x1="80" y1="137.5" x2="760" y2="137.5" stroke="#21262d" stroke-width="1"/>
  <line x1="80" y1="90.0" x2="760" y2="90.0" stroke="#21262d" stroke-width="1"/>
  <text x="70" y="236.5" fill="#7d8590" font-size="11" text-anchor="end">60</text>
  <text x="70" y="189.0" fill="#7d8590" font-size="11" text-anchor="end">120</text>
  <text x="70" y="141.5" fill="#7d8590" font-size="11" text-anchor="end">180</text>
  <text x="70" y="94.0" fill="#7d8590" font-size="11" text-anchor="end">240</text>
  <path d="M 150 278.4 L 265 268.9 L 380 263.4 L 495 244.4 L 610 196.9 L 725 93.2 L 725 280 L 150 280 Z" fill="url(#areaGrad)"/>
  <path d="M 150 278.4 L 265 268.9 L 380 263.4 L 495 244.4 L 610 196.9 L 725 93.2" fill="none" stroke="#6366f1" stroke-width="3" stroke-linecap="round" stroke-linejoin="round"/>
  <circle cx="150" cy="278.4" r="5" fill="#6366f1" stroke="#0d1117" stroke-width="2"/>
  <circle cx="265" cy="268.9" r="5" fill="#6366f1" stroke="#0d1117" stroke-width="2"/>
  <circle cx="380" cy="263.4" r="5" fill="#6366f1" stroke="#0d1117" stroke-width="2"/>
  <circle cx="495" cy="244.4" r="5" fill="#6366f1" stroke="#0d1117" stroke-width="2"/>
  <circle cx="610" cy="196.9" r="6" fill="#6366f1" stroke="#0d1117" stroke-width="2"/>
  <circle cx="725" cy="93.2" r="6" fill="#6366f1" stroke="#0d1117" stroke-width="2"/>
  <text x="150" y="269.4" fill="#e6edf3" font-size="12" font-weight="600" text-anchor="middle">2</text>
  <text x="265" y="259.9" fill="#e6edf3" font-size="12" font-weight="600" text-anchor="middle">14</text>
  <text x="380" y="254.39999999999998" fill="#e6edf3" font-size="12" font-weight="600" text-anchor="middle">21</text>
  <text x="495" y="235.4" fill="#e6edf3" font-size="12" font-weight="600" text-anchor="middle">45</text>
  <text x="610" y="187.9" fill="#e6edf3" font-size="14" font-weight="700" text-anchor="middle">105</text>
  <text x="725" y="84.2" fill="#e6edf3" font-size="14" font-weight="700" text-anchor="middle">236</text>
  <text x="150" y="298" fill="#7d8590" font-size="12" text-anchor="middle">Dec</text>
  <text x="265" y="298" fill="#7d8590" font-size="12" text-anchor="middle">Jan</text>
  <text x="380" y="298" fill="#7d8590" font-size="12" text-anchor="middle">Feb</text>
  <text x="495" y="298" fill="#7d8590" font-size="12" text-anchor="middle">Mar</text>
  <text x="610" y="298" fill="#7d8590" font-size="12" text-anchor="middle">Apr</text>
  <text x="725" y="298" fill="#7d8590" font-size="12" text-anchor="middle">May</text>
</svg>
