<svg xmlns="http://www.w3.org/2000/svg" viewBox="0 0 800 320" font-family="-apple-system, BlinkMacSystemFont, 'Segoe UI', Helvetica, Arial, sans-serif">
  <defs>
    <linearGradient id="barGrad" x1="0" y1="0" x2="0" y2="1">
      <stop offset="0%" stop-color="#6366f1"/>
      <stop offset="100%" stop-color="#818cf8"/>
    </linearGradient>
    <linearGradient id="areaGrad" x1="0" y1="0" x2="0" y2="1">
      <stop offset="0%" stop-color="#6366f1" stop-opacity="0.3"/>
      <stop offset="100%" stop-color="#6366f1" stop-opacity="0.02"/>
    </linearGradient>
  </defs>

  <!-- Background -->
  <rect width="800" height="320" rx="12" fill="#0d1117"/>

  <!-- Title -->
  <text x="40" y="40" fill="#e6edf3" font-size="18" font-weight="600">User Growth</text>
  <text x="40" y="62" fill="#7d8590" font-size="13">Cumulative signups since launch</text>

  <!-- Grid lines -->
  <line x1="80" y1="90" x2="760" y2="90" stroke="#21262d" stroke-width="1"/>
  <line x1="80" y1="140" x2="760" y2="140" stroke="#21262d" stroke-width="1"/>
  <line x1="80" y1="190" x2="760" y2="190" stroke="#21262d" stroke-width="1"/>
  <line x1="80" y1="240" x2="760" y2="240" stroke="#21262d" stroke-width="1"/>

  <!-- Y-axis labels -->
  <text x="70" y="94" fill="#7d8590" font-size="11" text-anchor="end">120</text>
  <text x="70" y="144" fill="#7d8590" font-size="11" text-anchor="end">90</text>
  <text x="70" y="194" fill="#7d8590" font-size="11" text-anchor="end">60</text>
  <text x="70" y="244" fill="#7d8590" font-size="11" text-anchor="end">30</text>

  <!-- Area fill -->
  <path d="M 150 277 L 265 271 L 380 262 L 495 222 L 610 140 L 725 126 L 725 280 L 150 280 Z" fill="url(#areaGrad)"/>

  <!-- Line -->
  <path d="M 150 277 L 265 271 L 380 262 L 495 222 L 610 140 L 725 126" fill="none" stroke="#6366f1" stroke-width="3" stroke-linecap="round" stroke-linejoin="round"/>

  <!-- Data points -->
  <circle cx="150" cy="277" r="5" fill="#6366f1" stroke="#0d1117" stroke-width="2"/>
  <circle cx="265" cy="271" r="5" fill="#6366f1" stroke="#0d1117" stroke-width="2"/>
  <circle cx="380" cy="262" r="5" fill="#6366f1" stroke="#0d1117" stroke-width="2"/>
  <circle cx="495" cy="222" r="5" fill="#6366f1" stroke="#0d1117" stroke-width="2"/>
  <circle cx="610" cy="140" r="6" fill="#6366f1" stroke="#0d1117" stroke-width="2"/>
  <circle cx="725" cy="126" r="6" fill="#6366f1" stroke="#0d1117" stroke-width="2"/>

  <!-- Data labels -->
  <text x="150" y="268" fill="#e6edf3" font-size="12" font-weight="600" text-anchor="middle">3</text>
  <text x="265" y="262" fill="#e6edf3" font-size="12" font-weight="600" text-anchor="middle">12</text>
  <text x="380" y="253" fill="#e6edf3" font-size="12" font-weight="600" text-anchor="middle">19</text>
  <text x="495" y="213" fill="#e6edf3" font-size="12" font-weight="600" text-anchor="middle">43</text>
  <text x="610" y="131" fill="#e6edf3" font-size="14" font-weight="700" text-anchor="middle">102</text>
  <text x="725" y="117" fill="#e6edf3" font-size="14" font-weight="700" text-anchor="middle">114</text>

  <!-- X-axis labels -->
  <text x="150" y="298" fill="#7d8590" font-size="12" text-anchor="middle">Dec</text>
  <text x="265" y="298" fill="#7d8590" font-size="12" text-anchor="middle">Jan</text>
  <text x="380" y="298" fill="#7d8590" font-size="12" text-anchor="middle">Feb</text>
  <text x="495" y="298" fill="#7d8590" font-size="12" text-anchor="middle">Mar</text>
  <text x="610" y="298" fill="#7d8590" font-size="12" text-anchor="middle">Apr</text>
  <text x="725" y="298" fill="#7d8590" font-size="12" text-anchor="middle">May</text>
</svg>
